<?xml version="1.0" encoding="utf-8"?>
<!-- Generator: Adobe Illustrator 27.0.0, SVG Export Plug-In . SVG Version: 6.00 Build 0)  -->
<svg version="1.0" id="Layer_1" xmlns="http://www.w3.org/2000/svg" xmlns:xlink="http://www.w3.org/1999/xlink" x="0px" y="0px"
	 width="2000px" height="400px" viewBox="0 0 2000 400" style="enable-background:new 0 0 2000 400;" xml:space="preserve">
<style type="text/css">
	.st0{fill:#F4D13D;}
	.st1{fill:#82B895;}
	.st2{fill:#E20613;}
	.st3{fill:#CF83A4;}
	.st4{fill:#5369AF;}
	.st5{fill:#80BEE8;}
</style>
<g>
	<g>
		<path d="M324.7,263.3c-4.6,1.2-18,1.9-22.6,1.9c-20.7,0-36.7-11.2-36.7-36.2v-58.1h-17v-23.3h17v-21.9l13.4-11.2h18.7v101.2
			c0,13.1-0.7,21.9,12.2,21.9c5.4,0,11.9-0.7,15.1-1.2V263.3z M304.5,170.8v-23.3h20.9v23.3H304.5z"/>
		<path d="M373.3,262.8h-32.1V90.1h32.1V262.8z M409.3,262.8v-70c0-13.9-8-15.3-16.3-14.1l-12.6,2.2v-21.9l15.8-13.1
			c2.2-0.7,4.9-1,6.8-1c26.3,0,38.4,15.6,38.4,37v81H409.3z"/>
		<path d="M566.2,185.4v30.9h-99.7v-30.9c0-23.8,12.6-40.6,50.1-40.6C554,144.8,566.2,161.6,566.2,185.4z M466.5,223.6h32.3
			c0.7,12.6,7.8,16.3,24.6,16.3c12.2,0,29.9-1.5,38.9-2.9v25.8c-10.2,1.5-27.2,2.7-40.6,2.7C493,265.5,467.2,255.7,466.5,223.6z
			 M534.3,194v-7.1c0-10-2.7-16.5-17.8-16.5c-12.4,0-18,4.1-18,17v6.6H534.3z"/>
		<path d="M667.6,209.5h-32.1v-22.9c0-23.8,11.2-41.8,47.4-41.8c8,0,33.6,2.4,33.6,2.4v25.5c0,0-18.5-2.4-28.7-2.4
			c-11.9,0-20.2,3.2-20.2,21.4V209.5z M683.9,265.5c-26,0-48.4-9-48.4-40.4v-8.3h32.1v3.2c0,18.5,5.8,19.9,21.4,19.9
			c10.2,0,29.7-2.7,29.7-2.7v25.1C718.7,262.3,703.3,265.5,683.9,265.5z"/>
		<path d="M769.5,191v18.5h-32.1v-22.9c0-23.8,15.3-41.8,51.6-41.8s51.6,18,51.6,41.8v22.9h-32.1V191c0-15.1-5.8-21.4-19.5-21.4
			C775.3,169.6,769.5,176,769.5,191z M808.4,219v-2.2h32.1v8c0,31.4-27,40.6-51.6,40.6s-51.6-9.2-51.6-40.6v-8h32.1v2.2
			c0,15.3,5.8,21.6,19.5,21.6C802.6,240.7,808.4,234.3,808.4,219z"/>
		<path d="M926.6,146.3v26c-3.2-1-6.6-1.7-11.2-1.7c-12.2,0-17.8,5.6-17.8,16.8v30.2c0,13.9,8,15.3,16.3,14.1l12.6-1.9v21.6
			l-15.8,13.1c-2.2,0.7-4.9,1-6.8,1c-26.3,0-38.4-15.6-38.4-37v-43.1c0-23.8,10.9-40.6,47.2-40.6C916.6,144.8,922,145.3,926.6,146.3
			z M933.7,262.8V90.1h32.1v172.7H933.7z"/>
		<path d="M1090.5,185.4v30.9h-99.7v-30.9c0-23.8,12.6-40.6,50.1-40.6C1078.4,144.8,1090.5,161.6,1090.5,185.4z M990.8,223.6h32.3
			c0.7,12.6,7.8,16.3,24.6,16.3c12.2,0,29.9-1.5,38.9-2.9v25.8c-10.2,1.5-27.2,2.7-40.6,2.7C1017.3,265.5,991.6,255.7,990.8,223.6z
			 M1058.7,194v-7.1c0-10-2.7-16.5-17.8-16.5c-12.4,0-18,4.1-18,17v6.6H1058.7z"/>
		<path d="M1192,209.5h-32.1v-22.9c0-23.8,11.2-41.8,47.4-41.8c8,0,33.6,2.4,33.6,2.4v25.5c0,0-18.5-2.4-28.7-2.4
			c-11.9,0-20.2,3.2-20.2,21.4V209.5z M1208.3,265.5c-26,0-48.4-9-48.4-40.4v-8.3h32.1v3.2c0,18.5,5.8,19.9,21.4,19.9
			c10.2,0,29.7-2.7,29.7-2.7v25.1C1243,262.3,1227.7,265.5,1208.3,265.5z"/>
		<path d="M1259.8,262.8V147.5h32.1v115.3H1259.8z M1299,191.8v-30.6c4.6-7.1,12.6-14.1,27.5-14.8v33.8
			C1312.8,179.8,1304.1,185.9,1299,191.8z"/>
		<path d="M1440.8,185.4v30.9h-99.7v-30.9c0-23.8,12.6-40.6,50.1-40.6C1428.6,144.8,1440.8,161.6,1440.8,185.4z M1341.1,223.6h32.3
			c0.7,12.6,7.8,16.3,24.6,16.3c12.2,0,29.9-1.5,38.9-2.9v25.8c-10.2,1.5-27.2,2.7-40.6,2.7C1367.6,265.5,1341.8,255.7,1341.1,223.6
			z M1408.9,194v-7.1c0-10-2.7-16.5-17.8-16.5c-12.4,0-18,4.1-18,17v6.6H1408.9z"/>
		<path d="M1457.6,224.8c0-17.3,10-32.3,40.4-34.3l19.2-1.2V212l-18,1.2c-5.6,0.5-11.2,3.2-11.2,9.7v2.9c0,7.1,3.9,9.5,9.7,9.5
			c3.4,0,7.8-1,11.9-2.2l7.5-2.2v20.4l-16.1,13.1c-2.2,0.7-4.9,1-6.8,1c-22.9,0-36.7-13.4-36.7-31.1V224.8z M1524.2,184
			c0-6.8-5.6-10.9-18.2-10.9c-13.9,0-38.9,2.2-38.9,2.2v-28c0,0,35.5-2.4,43.5-2.4c26,0,45.7,7.5,45.7,38.9v79h-32.1V184z"/>
		<path d="M1649,263.3c-4.6,1.2-18,1.9-22.6,1.9c-20.7,0-36.7-11.2-36.7-36.2v-58.1h-17v-23.3h17v-21.9l13.4-11.2h18.7v101.2
			c0,13.1-0.7,21.9,12.2,21.9c5.4,0,11.9-0.7,15.1-1.2V263.3z M1628.8,170.8v-23.3h20.9v23.3H1628.8z"/>
		<path d="M1697.8,191v18.5h-32.1v-22.9c0-23.8,15.3-41.8,51.6-41.8s51.6,18,51.6,41.8v22.9h-32.1V191c0-15.1-5.8-21.4-19.5-21.4
			C1703.7,169.6,1697.8,176,1697.8,191z M1736.8,219v-2.2h32.1v8c0,31.4-27,40.6-51.6,40.6c-24.6,0-51.6-9.2-51.6-40.6v-8h32.1v2.2
			c0,15.3,5.8,21.6,19.5,21.6C1730.9,240.7,1736.8,234.3,1736.8,219z"/>
		<path d="M1792.2,262.8V147.5h32.1v115.3H1792.2z M1831.4,191.8v-30.6c4.6-7.1,12.6-14.1,27.5-14.8v33.8
			C1845.2,179.8,1836.5,185.9,1831.4,191.8z"/>
		<path d="M1904.6,176.9H1872v-0.2c0-24.6,17.3-31.9,44.8-31.9c22.1,0,38.2,2.4,38.2,2.4v27c0,0-23.3-2.7-34.3-2.7
			C1910.7,171.6,1906,173.3,1904.6,176.9z M1961.7,232.4c0,24.6-18,33.1-42.6,33.1h-7.3v-27c10.9,0,17.8-0.2,17.8-9.5v-2.2
			c0-4.6-2.7-7.3-8.5-8l-22.1-2.7c-15.1-1.9-27-13.6-27-30.2v-2.4h32.1c0.2,4.1,3.2,6.3,8.8,7.1l21.9,2.7c15.1,1.9,27,13.6,27,30.2
			V232.4z M1904.8,238.5v26.8c-17.3-0.7-32.3-2.4-32.3-2.4v-27.7C1872.5,235.1,1889.5,237.7,1904.8,238.5z"/>
	</g>
	<g>
		<path class="st0" d="M156.8,168.3H87.2c-6.9,0-12.5-5.6-12.5-12.5v0c0-6.9,5.6-12.5,12.5-12.5h69.6c6.9,0,12.5,5.6,12.5,12.5v0
			C169.3,162.7,163.7,168.3,156.8,168.3z"/>
		<path class="st1" d="M66.7,213.3h-16c-6.9,0-12.5-5.6-12.5-12.5v0c0-6.9,5.6-12.5,12.5-12.5h16c6.9,0,12.5,5.6,12.5,12.5v0
			C79.2,207.7,73.6,213.3,66.7,213.3z"/>
		<path class="st2" d="M122.4,213.3H97.1c-6.9,0-12.5-5.6-12.5-12.5v0c0-6.9,5.6-12.5,12.5-12.5h25.4c6.9,0,12.5,5.6,12.5,12.5v0
			C134.9,207.7,129.3,213.3,122.4,213.3z"/>
		<path class="st3" d="M193.3,168.5h-5.4c-6.9,0-12.5-5.6-12.5-12.5v0c0-6.9,5.6-12.5,12.5-12.5h5.4c6.9,0,12.5,5.6,12.5,12.5v0
			C205.8,162.9,200.2,168.5,193.3,168.5z"/>
		<path class="st4" d="M163.8,259.2h-57c-6.9,0-12.5-5.6-12.5-12.5v0c0-6.9,5.6-12.5,12.5-12.5h57c6.9,0,12.5,5.6,12.5,12.5v0
			C176.2,253.6,170.7,259.2,163.8,259.2z"/>
		<path class="st5" d="M76,258.8h-5.4c-6.9,0-12.5-5.6-12.5-12.5v0c0-6.9,5.6-12.5,12.5-12.5H76c6.9,0,12.5,5.6,12.5,12.5v0
			C88.5,253.2,82.9,258.8,76,258.8z"/>
	</g>
</g>
</svg>
