<?xml version="1.0" encoding="utf-8"?>
<!-- Generator: Adobe Illustrator 27.0.0, SVG Export Plug-In . SVG Version: 6.00 Build 0)  -->
<svg version="1.0" id="Layer_1" xmlns="http://www.w3.org/2000/svg" xmlns:xlink="http://www.w3.org/1999/xlink" x="0px" y="0px"
	 width="60px" height="60px" viewBox="0 0 60 60" style="enable-background:new 0 0 60 60;" xml:space="preserve">
<g>
	<path d="M39.5,21h-19c-1.9,0-3.4-1.5-3.4-3.4v0c0-1.9,1.5-3.4,3.4-3.4h19c1.9,0,3.4,1.5,3.4,3.4v0C42.9,19.5,41.4,21,39.5,21z"/>
	<path d="M14.9,33.3h-4.4c-1.9,0-3.4-1.5-3.4-3.4v0c0-1.9,1.5-3.4,3.4-3.4h4.4c1.9,0,3.4,1.5,3.4,3.4v0
		C18.3,31.7,16.8,33.3,14.9,33.3z"/>
	<path d="M30.1,33.3h-6.9c-1.9,0-3.4-1.5-3.4-3.4v0c0-1.9,1.5-3.4,3.4-3.4h6.9c1.9,0,3.4,1.5,3.4,3.4v0C33.5,31.7,32,33.3,30.1,33.3
		z"/>
	<path d="M49.4,21.1h-1.5c-1.9,0-3.4-1.5-3.4-3.4v0c0-1.9,1.5-3.4,3.4-3.4h1.5c1.9,0,3.4,1.5,3.4,3.4v0
		C52.8,19.6,51.3,21.1,49.4,21.1z"/>
	<path d="M41.4,45.8H25.9c-1.9,0-3.4-1.5-3.4-3.4v0c0-1.9,1.5-3.4,3.4-3.4h15.5c1.9,0,3.4,1.5,3.4,3.4v0
		C44.8,44.3,43.3,45.8,41.4,45.8z"/>
	<path d="M17.5,45.7H16c-1.9,0-3.4-1.5-3.4-3.4v0c0-1.9,1.5-3.4,3.4-3.4h1.5c1.9,0,3.4,1.5,3.4,3.4v0C20.9,44.1,19.3,45.7,17.5,45.7
		z"/>
</g>
</svg>
