<?xml version="1.0" encoding="utf-8"?>
<!-- Generator: Adobe Illustrator 27.0.0, SVG Export Plug-In . SVG Version: 6.00 Build 0)  -->
<svg version="1.0" id="Layer_1" xmlns="http://www.w3.org/2000/svg" xmlns:xlink="http://www.w3.org/1999/xlink" x="0px" y="0px"
	 width="400px" height="400px" viewBox="0 0 400 400" style="enable-background:new 0 0 400 400;" xml:space="preserve">
<style type="text/css">
	.st0{fill:#F4D13D;}
	.st1{fill:#82B895;}
	.st2{fill:#E20613;}
	.st3{fill:#CF83A4;}
	.st4{fill:#5369AF;}
	.st5{fill:#80BEE8;}
</style>
<g>
	<path class="st0" d="M271,76.6H128.9c-14.1,0-25.5-11.4-25.5-25.5v0c0-14.1,11.4-25.5,25.5-25.5H271c14.1,0,25.5,11.4,25.5,25.5v0
		C296.5,65.2,285.1,76.6,271,76.6z"/>
	<path class="st1" d="M87.1,168.3H54.5c-14.1,0-25.5-11.4-25.5-25.5v0c0-14.1,11.4-25.5,25.5-25.5h32.6c14.1,0,25.5,11.4,25.5,25.5
		v0C112.6,156.9,101.2,168.3,87.1,168.3z"/>
	<path class="st2" d="M200.9,168.3h-51.8c-14.1,0-25.5-11.4-25.5-25.5v0c0-14.1,11.4-25.5,25.5-25.5h51.8
		c14.1,0,25.5,11.4,25.5,25.5v0C226.4,156.9,215,168.3,200.9,168.3z"/>
	<path class="st3" d="M345.5,77h-11.1c-14.1,0-25.5-11.4-25.5-25.5v0c0-14.1,11.4-25.5,25.5-25.5h11.1c14.1,0,25.5,11.4,25.5,25.5v0
		C370.9,65.6,359.5,77,345.5,77z"/>
	<path class="st4" d="M285.2,262.1H169c-14.1,0-25.5-11.4-25.5-25.5v0c0-14.1,11.4-25.5,25.5-25.5h116.3c14.1,0,25.5,11.4,25.5,25.5
		v0C310.7,250.7,299.3,262.1,285.2,262.1z"/>
	<path class="st5" d="M106.1,261.2H95c-14.1,0-25.5-11.4-25.5-25.5v0c0-14.1,11.4-25.5,25.5-25.5h11.1c14.1,0,25.5,11.4,25.5,25.5v0
		C131.6,249.8,120.2,261.2,106.1,261.2z"/>
</g>
</svg>
