<?xml version="1.0" encoding="utf-8"?>
<!-- Generator: Adobe Illustrator 27.0.0, SVG Export Plug-In . SVG Version: 6.00 Build 0)  -->
<svg version="1.0" id="Layer_1" xmlns="http://www.w3.org/2000/svg" xmlns:xlink="http://www.w3.org/1999/xlink" x="0px" y="0px"
	 width="400px" height="400px" viewBox="0 0 400 400" style="enable-background:new 0 0 400 400;" xml:space="preserve">
<style type="text/css">
	.st0{fill:#D06C6C;}
	.st1{fill:#FFFFFF;}
</style>
<g>
	<g>
		<circle class="st0" cx="199.5" cy="199.6" r="172"/>
		<g>
			<path class="st1" d="M94.3,200.9l47.8,26.5c2.4,1.3,4,2.5,4.8,3.6c0.8,1.1,1.2,2.4,1.2,4c0,2.1-0.7,3.9-2.2,5.4
				c-1.5,1.5-3.2,2.3-5.2,2.3c-1.3,0-3.2-0.7-5.8-2.2l-71.2-39.6l71.2-39.6c2.6-1.4,4.5-2.1,5.8-2.1c2,0,3.8,0.7,5.3,2.2
				c1.5,1.5,2.2,3.3,2.2,5.3c0,1.6-0.4,3-1.2,4c-0.8,1.1-2.4,2.3-4.8,3.6L94.3,200.9z"/>
			<path class="st1" d="M228.6,151.5l-47.3,101.9c-1.2,2.5-2.3,4.2-3.2,5c-1.2,1-2.8,1.5-4.5,1.5c-2,0-3.8-0.7-5.2-2.2
				c-1.5-1.4-2.2-3.1-2.2-4.9c0-1.3,0.6-3.2,1.7-5.7l47.4-101.8c1.2-2.5,2.3-4.2,3.2-5c1.3-1,2.8-1.5,4.5-1.5c2,0,3.7,0.7,5.2,2.1
				c1.4,1.4,2.2,3,2.2,4.9C230.3,147.1,229.7,149,228.6,151.5z"/>
			<path class="st1" d="M302.2,200.9l-47.8-26.5c-2.4-1.3-4-2.5-4.8-3.6c-0.8-1.1-1.2-2.4-1.2-4c0-2.1,0.7-3.8,2.2-5.3
				c1.5-1.5,3.2-2.2,5.3-2.2c1.2,0,3.2,0.7,5.8,2.1l71.2,39.6l-71.2,39.6c-2.6,1.4-4.5,2.2-5.8,2.2c-2,0-3.8-0.7-5.3-2.2
				c-1.5-1.5-2.2-3.3-2.2-5.4c0-1.6,0.4-3,1.2-4c0.8-1.1,2.4-2.3,4.8-3.6L302.2,200.9z"/>
		</g>
	</g>
</g>
</svg>
