<?xml version="1.0" encoding="utf-8"?>
<!-- Generator: Adobe Illustrator 27.0.0, SVG Export Plug-In . SVG Version: 6.00 Build 0)  -->
<svg version="1.0" id="Layer_1" xmlns="http://www.w3.org/2000/svg" xmlns:xlink="http://www.w3.org/1999/xlink" x="0px" y="0px"
	 width="2000px" height="400px" viewBox="0 0 2000 400" style="enable-background:new 0 0 2000 400;" xml:space="preserve">
<style type="text/css">
	.st0{fill:#D06C6C;}
	.st1{fill:#FFFFFF;}
</style>
<g>
	<g>
		<g>
			<circle class="st0" cx="198.2" cy="199.6" r="172"/>
			<g>
				<path class="st1" d="M93,200.9l47.8,26.5c2.4,1.3,4,2.5,4.8,3.6c0.8,1.1,1.2,2.4,1.2,4c0,2.1-0.7,3.9-2.2,5.4
					c-1.5,1.5-3.2,2.3-5.2,2.3c-1.3,0-3.2-0.7-5.8-2.2l-71.2-39.6l71.2-39.6c2.6-1.4,4.5-2.1,5.8-2.1c2,0,3.8,0.7,5.3,2.2
					c1.5,1.5,2.2,3.3,2.2,5.3c0,1.6-0.4,3-1.2,4c-0.8,1.1-2.4,2.3-4.8,3.6L93,200.9z"/>
				<path class="st1" d="M227.3,151.6L180,253.5c-1.2,2.5-2.3,4.2-3.2,5c-1.2,1-2.8,1.5-4.5,1.5c-2,0-3.8-0.7-5.2-2.2
					c-1.5-1.4-2.2-3.1-2.2-4.9c0-1.3,0.6-3.2,1.7-5.7L214,145.4c1.2-2.5,2.3-4.2,3.2-5c1.3-1,2.8-1.5,4.5-1.5c2,0,3.7,0.7,5.2,2.1
					c1.4,1.4,2.2,3,2.2,4.9C229,147.2,228.4,149.1,227.3,151.6z"/>
				<path class="st1" d="M300.9,200.9l-47.8-26.5c-2.4-1.3-4-2.5-4.8-3.6c-0.8-1.1-1.2-2.4-1.2-4c0-2.1,0.7-3.8,2.2-5.3
					c1.5-1.5,3.2-2.2,5.3-2.2c1.2,0,3.2,0.7,5.8,2.1l71.2,39.6l-71.2,39.6c-2.6,1.4-4.5,2.2-5.8,2.2c-2,0-3.8-0.7-5.3-2.2
					c-1.5-1.5-2.2-3.3-2.2-5.4c0-1.6,0.4-3,1.2-4c0.8-1.1,2.4-2.3,4.8-3.6L300.9,200.9z"/>
			</g>
		</g>
	</g>
	<g>
		<path d="M465.1,203.5h-16v69h-24v-69h-16v-21h16v-60h24v60h16V203.5z"/>
		<path d="M571.1,272.5h-24v-55.8c0-9.6-7.4-16.6-18-16.6c-11.2,0-20,8.8-20,18.8v53.6h-24v-150h24v64.6c6-6.4,14.6-8.6,22.6-8.6
			c19.8,0,39.4,14.6,39.4,37.2V272.5z"/>
		<path d="M692.1,237.7h-71.2c3.6,10.4,12.6,17.8,23.2,17.8c9.8,0,18.2-6.2,22.2-15.4l20.2,12c-8.4,14.6-24.2,24.4-42.4,24.4
			c-27,0-49-22-49-49c0-27,22-49,49-49s49,22,49,49C693.1,231.1,692.7,234.5,692.1,237.7z M667.1,216.7c-3.8-10-12.6-17.2-23-17.2
			s-19.2,7-23,17.2H667.1z"/>
		<path d="M803.3,214.7c-4.2-9-12.4-15.2-22.2-15.2c-13.8,0-25,12.6-25,28s11.2,28,25,28c9.6,0,18-6.2,22.2-15.2l20.2,11.8
			c-8.4,14.6-24.2,24.4-42.4,24.4c-27,0-49-22-49-49c0-27,22-49,49-49c18.2,0,34,9.8,42.4,24.6L803.3,214.7z"/>
		<path d="M891.5,276.5c-27,0-49-22-49-49c0-27,22-49,49-49c27,0,49,22,49,49C940.5,254.5,918.5,276.5,891.5,276.5z M891.5,199.5
			c-13.8,0-25,12.6-25,28s11.2,28,25,28s25-12.6,25-28S905.3,199.5,891.5,199.5z"/>
		<path d="M1060.4,272.5h-24v-4.8c-7.4,5.8-16.4,8.6-25.6,8.6c-23.6,0-48.4-18-48.4-48.8c0-30.8,24.8-48.8,48.4-48.8
			c9.2,0,18.2,2.8,25.6,8.6v-64.8h24V272.5z M1011.5,199.5c-13.8,0-25,12.6-25,28s11.2,28,25,28s25-12.6,25-28
			S1025.2,199.5,1011.5,199.5z"/>
		<path d="M1181.4,237.7h-71.2c3.6,10.4,12.6,17.8,23.2,17.8c9.8,0,18.2-6.2,22.2-15.4l20.2,12c-8.4,14.6-24.2,24.4-42.4,24.4
			c-27,0-49-22-49-49c0-27,22-49,49-49s49,22,49,49C1182.4,231.1,1182,234.5,1181.4,237.7z M1156.4,216.7c-3.8-10-12.6-17.2-23-17.2
			c-10.4,0-19.2,7-23,17.2H1156.4z"/>
		<path d="M1288.6,214.7c-4.2-9-12.4-15.2-22.2-15.2c-13.8,0-25,12.6-25,28s11.2,28,25,28c9.6,0,18-6.2,22.2-15.2l20.2,11.8
			c-8.4,14.6-24.2,24.4-42.4,24.4c-27,0-49-22-49-49c0-27,22-49,49-49c18.2,0,34,9.8,42.4,24.6L1288.6,214.7z"/>
		<path d="M1384.4,200.9c-2.6-0.8-9-2-12.6-2c-12.4,0-21,9.2-21,19.8v53.8h-24v-90h24v4.6c6.2-6.8,13.8-8.6,21.8-8.6
			c3.8,0,7.8,0.4,11.8,1V200.9z"/>
		<path d="M1495.6,237.7h-71.2c3.6,10.4,12.6,17.8,23.2,17.8c9.8,0,18.2-6.2,22.2-15.4l20.2,12c-8.4,14.6-24.2,24.4-42.4,24.4
			c-27,0-49-22-49-49c0-27,22-49,49-49s49,22,49,49C1496.6,231.1,1496.2,234.5,1495.6,237.7z M1470.6,216.7
			c-3.8-10-12.6-17.2-23-17.2c-10.4,0-19.2,7-23,17.2H1470.6z"/>
		<path d="M1614.6,272.5h-24v-4.8c-7.4,5.8-16.4,8.6-25.6,8.6c-23.6,0-48.4-18-48.4-48.8c0-30.8,24.8-48.8,48.4-48.8
			c9.2,0,18.2,2.8,25.6,8.6v-4.8h24V272.5z M1565.6,199.5c-13.8,0-25,12.6-25,28s11.2,28,25,28s25-12.6,25-28
			S1579.4,199.5,1565.6,199.5z"/>
		<path d="M1690.6,203.5h-16v69h-24v-69h-16v-21h16v-60h24v60h16V203.5z"/>
		<path d="M1755.6,276.5c-27,0-49-22-49-49c0-27,22-49,49-49s49,22,49,49C1804.6,254.5,1782.6,276.5,1755.6,276.5z M1755.6,199.5
			c-13.8,0-25,12.6-25,28s11.2,28,25,28s25-12.6,25-28S1769.4,199.5,1755.6,199.5z"/>
		<path d="M1881.2,200.9c-2.6-0.8-9-2-12.6-2c-12.4,0-21,9.2-21,19.8v53.8h-24v-90h24v4.6c6.2-6.8,13.8-8.6,21.8-8.6
			c3.8,0,7.8,0.4,11.8,1V200.9z"/>
		<path d="M1957.6,211.1c-3.4-8.8-12-13-19.6-13c-7,0-13,3.6-13,10c0,3.6,2.4,6,7.4,7.2l17.6,3.8c13,3,26.8,8.4,26.8,27.2
			c0,19.8-18.6,30.4-37.8,30.4c-17.4,0-35.2-8.8-40.8-26.8l19.2-7c4.2,9.6,13.4,13.8,21.4,13.8c7.8,0,14.8-4,14.8-10.8
			c0-3.2-2.4-5.4-7.4-6.6l-17.6-3.8c-13-2.8-26.4-8.8-26.4-27.6c0-19.6,17.4-29.4,35.8-29.4c16.4,0,33.4,8,38.8,24.2L1957.6,211.1z"
			/>
	</g>
</g>
</svg>
